<svg width="41" height="41" viewBox="0 0 41 41" fill="none" xmlns="http://www.w3.org/2000/svg">
<path d="M20.5 1.47925C10.1595 1.47925 1.75 9.88871 1.75 20.2292C1.75 30.5698 10.1595 38.9792 20.5 38.9792C30.8405 38.9792 39.25 30.5698 39.25 20.2292C39.25 9.88871 30.8405 1.47925 20.5 1.47925ZM20.5 3.97925C29.4894 3.97925 36.7598 11.2398 36.7598 20.2292C36.7598 29.2187 29.4894 36.489 20.5 36.489C11.5106 36.489 4.25 29.2187 4.25 20.2292C4.25 11.2398 11.5106 3.97925 20.5 3.97925ZM20.4829 10.2366C20.1527 10.2424 19.8382 10.3787 19.6081 10.6156C19.378 10.8526 19.251 11.171 19.2549 11.5012V12.5535C17.2366 12.9321 15.5098 14.2318 15.5098 16.4841C15.5098 18.0466 16.2142 19.3104 17.1602 20.0461C18.1062 20.7819 19.1743 21.1082 20.1118 21.4207C21.0493 21.7332 21.8586 22.0319 22.3188 22.3899C22.7791 22.7479 23 23.0491 23 23.9866C23 26.0699 18.0098 26.0699 18.0098 23.9866C18.0135 23.8201 17.9839 23.6545 17.9227 23.4996C17.8615 23.3448 17.7701 23.2036 17.6536 23.0846C17.5372 22.9655 17.3981 22.871 17.2446 22.8064C17.0911 22.7418 16.9263 22.7085 16.7598 22.7085C16.5932 22.7085 16.4284 22.7418 16.2749 22.8064C16.1214 22.871 15.9824 22.9655 15.8659 23.0846C15.7495 23.2036 15.658 23.3448 15.5968 23.4996C15.5357 23.6545 15.5061 23.8201 15.5098 23.9866C15.5098 26.2372 17.2381 27.5393 19.2549 27.9197V28.967C19.2512 29.1335 19.2808 29.2991 19.3419 29.454C19.4031 29.6088 19.4946 29.75 19.611 29.869C19.7275 29.9881 19.8665 30.0827 20.02 30.1472C20.1735 30.2118 20.3384 30.2451 20.5049 30.2451C20.6714 30.2451 20.8363 30.2118 20.9897 30.1472C21.1432 30.0827 21.2823 29.9881 21.3987 29.869C21.5152 29.75 21.6067 29.6088 21.6678 29.454C21.729 29.2991 21.7586 29.1335 21.7549 28.967V27.9197C23.772 27.5395 25.5024 26.2375 25.5024 23.9866C25.5024 22.4241 24.7956 21.1603 23.8496 20.4246C22.9036 19.6888 21.8354 19.3601 20.8979 19.0476C19.9604 18.7351 19.1512 18.4388 18.6909 18.0808C18.2307 17.7228 18.0098 17.4216 18.0098 16.4841C18.0098 14.4008 23 14.4008 23 16.4841C23 16.816 23.1318 17.1342 23.3665 17.3689C23.6011 17.6035 23.9194 17.7353 24.2512 17.7353C24.5831 17.7353 24.9013 17.6035 25.136 17.3689C25.3706 17.1342 25.5024 16.816 25.5024 16.4841C25.5024 14.2351 23.7714 12.9368 21.7549 12.5559V11.5012C21.7568 11.334 21.7252 11.168 21.6619 11.0132C21.5986 10.8584 21.5049 10.7179 21.3863 10.6C21.2677 10.4821 21.1266 10.3891 20.9714 10.3267C20.8163 10.2643 20.6501 10.2336 20.4829 10.2366Z" fill="#FAFAFA"/>
</svg>
